<svg width="279" height="55" viewBox="0 0 279 55" fill="none" xmlns="http://www.w3.org/2000/svg">
<g clip-path="url(#clip0_1_1626)">
<path d="M78.7403 20.1191C79.1862 20.6353 79.424 21.0618 79.424 21.5407C79.424 22.2514 78.8592 22.8201 78.1087 22.8201C77.6183 22.8201 77.1427 22.5133 76.838 22.1841C76.1841 21.4958 75.6194 21.1217 74.5865 21.1217C73.1523 21.1217 72.3349 21.8549 72.3349 22.8949C72.3349 23.673 72.7585 24.3838 74.1629 24.93L75.0769 25.2816C78.7403 26.6733 80.2191 28.0275 80.2191 30.2946C80.2191 33.5567 77.0015 35.1878 74.2744 35.1878C72.4167 35.1878 70.4698 34.4321 69.318 32.9656C69.0802 32.6813 68.6641 32.1351 68.6641 31.4318C68.6641 30.7734 69.0876 30.0851 69.957 30.0851C70.663 30.0851 71.1311 30.534 71.4581 30.9829C72.2829 32.0229 73.3827 32.3521 74.2744 32.3521C75.4262 32.3521 77.0015 31.9032 77.0015 30.2946C77.0015 29.0675 76.1767 28.4989 74.371 27.7881L73.3827 27.4065C70.9676 26.4638 69.1768 25.2816 69.1768 22.865C69.1768 20.0517 71.5249 18.301 74.4601 18.301C76.5334 18.301 77.7966 19.0791 78.7403 20.1191Z" fill="white"/>
<path d="M98.9288 26.7406C98.9288 31.7311 94.8641 35.1803 90.7326 35.1803C86.6233 35.1803 82.5586 31.7311 82.5586 26.7406C82.5586 21.7502 86.6233 18.301 90.7326 18.301C94.8716 18.301 98.9288 21.7502 98.9288 26.7406ZM85.8728 26.7406C85.8728 29.9803 88.1541 32.1576 90.7326 32.1576C93.3408 32.1576 95.6147 29.9803 95.6147 26.7406C95.6147 23.5009 93.3631 21.3237 90.7326 21.3237C88.1541 21.3237 85.8728 23.5009 85.8728 26.7406Z" fill="white"/>
<path d="M110.908 32.2025C111.659 32.2025 112.32 32.816 112.32 33.624C112.32 34.4022 111.659 35.0157 110.908 35.0157H103.485C102.474 35.0157 101.746 34.2825 101.746 33.2649V20.0218C101.746 19.124 102.452 18.3907 103.344 18.3907C104.213 18.3907 104.919 19.124 104.919 20.0218V32.195H110.908V32.2025Z" fill="white"/>
<path d="M127.299 19.9321V29.0825C127.299 32.9133 124.387 35.1803 120.745 35.1803C117.082 35.1803 114.191 32.9133 114.191 29.0825V19.9321C114.191 19.1016 114.875 18.3983 115.744 18.3983C116.614 18.3983 117.364 19.109 117.364 19.9321V29.0301C117.364 31.5142 118.94 32.5093 120.745 32.5093C122.573 32.5093 124.126 31.5142 124.126 29.0301V19.9321C124.126 19.1016 124.877 18.3983 125.769 18.3983C126.638 18.3908 127.299 19.1016 127.299 19.9321Z" fill="white"/>
<path d="M142.379 19.8797C142.379 20.6578 141.748 21.2713 140.997 21.2713H137.661V33.4969C137.661 34.4171 136.933 35.1728 136.085 35.1728C135.216 35.1728 134.488 34.4171 134.488 33.4969V21.2788H131.174C130.423 21.2788 129.762 20.6653 129.762 19.8872C129.762 19.0866 130.416 18.4656 131.174 18.4656H140.99C141.74 18.4656 142.379 19.0791 142.379 19.8797Z" fill="white"/>
<path d="M147.944 20.0218V33.5492C147.944 34.4246 147.216 35.1803 146.347 35.1803C145.455 35.1803 144.727 34.4246 144.727 33.5492V20.0218C144.727 19.1464 145.455 18.3907 146.347 18.3907C147.216 18.3907 147.944 19.1464 147.944 20.0218Z" fill="white"/>
<path d="M167.132 26.7406C167.132 31.7311 163.067 35.1803 158.936 35.1803C154.826 35.1803 150.762 31.7311 150.762 26.7406C150.762 21.7502 154.826 18.301 158.936 18.301C163.067 18.301 167.132 21.7502 167.132 26.7406ZM154.076 26.7406C154.076 29.9803 156.357 32.1576 158.936 32.1576C161.544 32.1576 163.818 29.9803 163.818 26.7406C163.818 23.5009 161.566 21.3237 158.936 21.3237C156.35 21.3237 154.076 23.5009 154.076 26.7406Z" fill="white"/>
<path d="M183.566 20.0218V33.5941C183.566 34.6117 182.912 35.1579 182.087 35.1579C181.404 35.1579 180.869 34.8062 180.445 34.2151L173.163 24.2342V33.5268C173.163 34.4022 172.457 35.1579 171.588 35.1579C170.674 35.1579 169.945 34.4022 169.945 33.5268V19.932C169.945 18.9369 170.599 18.3982 171.446 18.3982C172.13 18.3982 172.665 18.7499 173.066 19.3185L180.349 29.3219V20.0218C180.349 19.1464 181.077 18.3907 181.946 18.3907C182.86 18.3907 183.566 19.1464 183.566 20.0218Z" fill="white"/>
<path d="M196.581 20.0218V33.5492C196.581 34.4246 195.853 35.1803 194.983 35.1803C194.092 35.1803 193.363 34.4246 193.363 33.5492V20.0218C193.363 19.1464 194.092 18.3907 194.983 18.3907C195.853 18.3907 196.581 19.1464 196.581 20.0218Z" fill="white"/>
<path d="M211.063 19.8797C211.063 20.6578 210.431 21.2713 209.673 21.2713H206.337V33.4969C206.337 34.4171 205.608 35.1728 204.761 35.1728C203.892 35.1728 203.164 34.4171 203.164 33.4969V21.2788H199.849C199.099 21.2788 198.438 20.6653 198.438 19.8872C198.438 19.0866 199.091 18.4656 199.849 18.4656H209.666C210.431 18.4656 211.063 19.0791 211.063 19.8797Z" fill="white"/>
<path d="M233.516 32.2998C233.516 33.0779 232.974 33.6016 232.105 34.1703C231.116 34.7838 229.823 35.1878 228.233 35.1878C224.079 35.1878 219.918 31.7386 219.918 26.7481C219.918 21.7577 224.102 18.3085 228.181 18.3085C229.823 18.3085 231.116 18.7349 232.105 19.326C232.974 19.8947 233.516 20.4109 233.516 21.1965C233.516 22.1168 232.788 22.6405 232.038 22.6405C231.451 22.6405 231.027 22.3338 230.767 22.1467C230.418 21.9073 229.548 21.3462 228.233 21.3462C225.58 21.3462 223.232 23.7105 223.232 26.7631C223.232 29.8158 225.558 32.1801 228.255 32.1801C229.526 32.1801 230.418 31.6114 230.767 31.372C231.027 31.185 231.421 30.8782 232.038 30.8782C232.788 30.8557 233.516 31.372 233.516 32.2998Z" fill="white"/>
<path d="M250.513 33.6689C250.513 34.4471 249.859 35.1129 248.99 35.1129C248.284 35.1129 247.719 34.7089 247.466 34.0954L246.292 31.3046H239.627L238.453 34.0954C238.192 34.7089 237.628 35.1129 236.951 35.1129C236.082 35.1129 235.398 34.4545 235.398 33.6689C235.398 33.3397 235.495 33.033 235.607 32.7711L241.432 19.5504C241.759 18.7499 242.257 18.3683 242.956 18.3683C243.662 18.3683 244.152 18.7499 244.501 19.5504L250.327 32.7711C250.446 33.0255 250.513 33.3322 250.513 33.6689ZM245.207 28.7757L242.956 23.4336L240.704 28.7757H245.207Z" fill="white"/>
<path d="M265.241 33.5941C265.241 34.4246 264.632 35.083 263.807 35.083C263.317 35.083 262.893 34.8436 262.633 34.492L258.479 29.1498H256.153V33.5717C256.153 34.4471 255.448 35.1803 254.578 35.1803C253.686 35.1803 252.98 34.4471 252.98 33.5717V20.2164C252.98 19.1988 253.709 18.4656 254.719 18.4656H259.014C262.678 18.4656 265.026 20.8523 265.026 23.8302C265.026 26.0523 263.755 27.8704 261.623 28.7009L264.862 32.629C265.078 32.8908 265.241 33.22 265.241 33.5941ZM256.153 26.4339H258.881C260.642 26.4339 261.957 25.7979 261.957 23.8302C261.957 21.8923 260.642 21.1815 258.881 21.1815H256.153V26.4339Z" fill="white"/>
<path d="M277.592 32.2249C278.342 32.2249 279.004 32.8609 279.004 33.6166C279.004 34.3947 278.35 35.0082 277.592 35.0082H269.559C268.549 35.0082 267.82 34.275 267.82 33.2574V20.2164C267.82 19.1988 268.549 18.4656 269.559 18.4656H277.354C278.105 18.4656 278.766 19.0791 278.766 19.8348C278.766 20.6129 278.112 21.2564 277.354 21.2564H270.993V25.3714H275.177C275.95 25.3714 276.559 25.985 276.559 26.6957C276.559 27.429 275.95 28.0425 275.177 28.0425H270.993V32.2249H277.592Z" fill="white"/>
<path d="M52.6177 34.6642C55.9495 22.9487 49.2181 10.732 37.5827 7.3772C25.9473 4.02245 13.8139 10.8001 10.4821 22.5155C7.15021 34.231 13.8816 46.4478 25.517 49.8025C37.1525 53.1573 49.2858 46.3796 52.6177 34.6642Z" fill="black"/>
<path d="M19.2243 51.6331C19.1648 51.4611 19.1648 51.289 19.2243 51.1169L19.581 51.3039C19.5661 51.3788 19.5661 51.4461 19.5884 51.5134C19.6255 51.6182 19.6998 51.7005 19.7964 51.7529C19.8931 51.8052 19.9971 51.8127 20.1085 51.7828C20.2126 51.7529 20.2943 51.6855 20.3463 51.5883C20.3984 51.491 20.4058 51.3937 20.3686 51.289C20.3315 51.1842 20.2572 51.1019 20.1606 51.057H20.1531C20.1234 51.0421 20.0863 51.0121 20.0491 50.9897C20.0417 50.9822 20.0268 50.9747 20.0268 50.9747C20.0194 50.9672 20.0045 50.9598 19.9897 50.9448L19.9748 50.9224C19.9674 50.9149 19.9525 50.8999 19.9376 50.8849L19.9228 50.87C19.9153 50.8625 19.9005 50.8475 19.8856 50.8251L19.8782 50.8101C19.8633 50.7952 19.8485 50.7802 19.8485 50.7578L19.841 50.7503C19.8262 50.7353 19.8113 50.7129 19.8113 50.6979H19.8039V50.6904C19.7965 50.668 19.7816 50.653 19.7742 50.6306C19.7667 50.6081 19.7593 50.5932 19.7519 50.5857C19.685 50.3762 19.6998 50.1667 19.7964 49.9721C19.8931 49.7776 20.0491 49.6504 20.2646 49.5831C20.4727 49.5157 20.6807 49.5382 20.8739 49.6429C21.0746 49.7477 21.2009 49.8973 21.2752 50.1143C21.3272 50.2864 21.3346 50.4585 21.2752 50.6306L20.9185 50.4435C20.9334 50.3687 20.9334 50.3014 20.9037 50.234C20.8665 50.1218 20.7996 50.047 20.6956 49.9946C20.5916 49.9422 20.495 49.9347 20.3835 49.9647C20.272 50.0021 20.1977 50.0619 20.1457 50.1592C20.0937 50.2565 20.0937 50.3612 20.1308 50.466C20.168 50.5707 20.2349 50.653 20.3389 50.6979C20.3612 50.7054 20.3835 50.7203 20.4058 50.7428H20.4132L20.4652 50.7802C20.4652 50.7877 20.4652 50.7877 20.4727 50.7877L20.4801 50.7952C20.5024 50.8101 20.5172 50.8251 20.5247 50.8326C20.5247 50.8401 20.5321 50.8401 20.5395 50.8401V50.8475C20.5544 50.8625 20.5693 50.8775 20.5767 50.8849C20.5841 50.8849 20.5841 50.8924 20.5916 50.9074C20.599 50.9149 20.6138 50.9298 20.6213 50.9448C20.6287 50.9523 20.6361 50.9598 20.6361 50.9673C20.6436 50.9822 20.651 50.9972 20.6659 51.0047C20.6659 51.0121 20.6733 51.0196 20.6807 51.0271C20.6882 51.0346 20.6956 51.0496 20.703 51.072L20.7104 51.0795C20.7104 51.087 20.7104 51.087 20.7104 51.0944C20.7104 51.1019 20.7104 51.1019 20.7104 51.1019C20.7104 51.1094 20.7104 51.1094 20.7179 51.1169H20.7104C20.7253 51.1393 20.7253 51.1543 20.7327 51.1618C20.7996 51.3713 20.7922 51.5733 20.6956 51.7678C20.599 51.9624 20.4429 52.097 20.2349 52.1569C20.0268 52.2242 19.8187 52.2093 19.6181 52.1045C19.4249 51.9998 19.2912 51.8501 19.2243 51.6331Z" fill="white"/>
<path d="M22.7621 53.0547C22.5837 52.718 22.554 52.3664 22.6729 51.9998C22.7918 51.6331 23.0147 51.3638 23.3565 51.1917C23.6909 51.0121 24.0402 50.9822 24.4043 51.1019C24.6421 51.1767 24.8427 51.3114 25.0062 51.491C25.1697 51.6705 25.2737 51.8875 25.3332 52.1269C25.3852 52.3739 25.3777 52.6058 25.296 52.8527C25.1771 53.2193 24.9542 53.4887 24.6124 53.6608C24.2705 53.8403 23.9213 53.8628 23.5572 53.7505C23.2005 53.6233 22.933 53.3989 22.7621 53.0547ZM24.4414 53.3016C24.6792 53.1744 24.8427 52.9799 24.9245 52.7255C25.0062 52.4636 24.9839 52.2167 24.865 51.9698C24.7387 51.7304 24.5455 51.5658 24.2854 51.4835C24.1145 51.4311 23.9436 51.4162 23.7801 51.4611C23.6092 51.4985 23.4606 51.5808 23.3268 51.693C23.1931 51.8127 23.1039 51.9549 23.0519 52.1269C22.9701 52.3888 22.9924 52.6357 23.1188 52.8751C23.2376 53.122 23.4308 53.2867 23.6909 53.369C23.9436 53.4438 24.1962 53.4288 24.4414 53.3016Z" fill="white"/>
<path d="M27.3079 51.8576L27.7017 51.9175L27.3599 54.2668L28.6752 54.4613L28.6157 54.8579L26.9141 54.6035L27.3079 51.8576Z" fill="white"/>
<path d="M31.0306 54.6484C30.7853 54.4089 30.659 54.1246 30.659 53.7804V53.773V53.7655L30.6367 52.2466L31.0306 52.2392L31.0528 53.758V53.7655V53.773C31.0528 54.0049 31.142 54.1994 31.3055 54.3566C31.469 54.5212 31.6696 54.6035 31.8925 54.596C32.0486 54.596 32.1898 54.5511 32.3161 54.4763C32.4424 54.4014 32.539 54.2967 32.6133 54.162C32.6802 54.0348 32.7174 53.8927 32.7174 53.743V53.7356L32.6951 52.2167L33.0889 52.2092L33.1112 53.7281V53.7356V53.743C33.1186 54.0872 32.9997 54.3715 32.762 54.6184C32.5242 54.8653 32.2418 54.9925 31.9 54.9925C31.5656 55.0075 31.2758 54.8878 31.0306 54.6484Z" fill="white"/>
<path d="M35.6101 52.2691L34.7852 52.4187L34.7109 52.0297L36.7396 51.6556L36.8139 52.0446L35.9891 52.1943L36.4126 54.5287L36.0262 54.596L35.6101 52.2691Z" fill="white"/>
<path d="M38.3359 51.2066L38.7149 51.0869L39.5323 53.7355L39.1533 53.8552L38.3359 51.2066Z" fill="white"/>
<path d="M41.6429 52.531C41.2863 52.4038 41.0262 52.1644 40.8627 51.8202C40.6992 51.476 40.6844 51.1244 40.8107 50.7577C40.937 50.3986 41.1748 50.1367 41.5166 49.9721C41.747 49.8674 41.9773 49.8225 42.2225 49.8449C42.4678 49.8674 42.6833 49.9497 42.8839 50.0844C43.0845 50.2265 43.2406 50.4061 43.3446 50.638C43.5081 50.9822 43.523 51.3338 43.3892 51.693C43.2629 52.0596 43.0251 52.314 42.6758 52.4786C42.3489 52.6507 41.9996 52.6656 41.6429 52.531ZM43.0325 51.5658C43.1217 51.3114 43.1143 51.057 42.9954 50.8101C42.8765 50.5632 42.6981 50.3986 42.438 50.3013C42.178 50.2116 41.9253 50.2265 41.6801 50.3387C41.524 50.4136 41.3903 50.5258 41.2937 50.668C41.1971 50.8176 41.1376 50.9747 41.1228 51.1468C41.1079 51.3264 41.1376 51.491 41.2119 51.6556C41.3308 51.9025 41.5092 52.0671 41.7693 52.1569C42.0219 52.2541 42.2746 52.2392 42.5198 52.1269C42.7724 52.0072 42.9433 51.8277 43.0325 51.5658Z" fill="white"/>
<path d="M47.5291 49.5382L45.0249 49.1042L46.0578 50.5781L45.7383 50.8101L44.1406 48.5356L46.6597 48.9695L45.6268 47.4956L45.9463 47.2711L47.5291 49.5382Z" fill="white"/>
<path d="M48.8945 44.4729L49.1546 44.1736L51.213 46.0141L50.9529 46.3134L48.8945 44.4729Z" fill="white"/>
<path d="M51.0213 42.4303L50.5457 43.1261L50.2188 42.9017L51.3928 41.1883L51.7198 41.4128L51.2442 42.1086L53.1911 43.4628L52.9682 43.7845L51.0213 42.4303Z" fill="white"/>
<path d="M55.5903 37.986C55.2485 38.1506 54.8992 38.173 54.5425 38.0458C54.4013 37.9935 54.275 37.9261 54.1561 37.8289C54.0372 37.7391 53.9406 37.6343 53.8589 37.5146C53.7846 37.3949 53.7251 37.2677 53.6805 37.133C53.6434 36.9984 53.6211 36.8562 53.6211 36.714C53.6211 36.5644 53.6508 36.4222 53.6954 36.2801C53.8217 35.921 54.0521 35.6516 54.4013 35.487L54.5722 35.8461C54.327 35.9658 54.1561 36.1454 54.0669 36.4073C53.9778 36.6617 53.9926 36.9161 54.1041 37.163C54.223 37.4173 54.4088 37.582 54.6614 37.6717C54.9141 37.7615 55.1667 37.7466 55.4119 37.6268C55.6572 37.5146 55.8281 37.3201 55.9172 37.0657C56.0064 36.8113 55.9915 36.5569 55.8727 36.3175L56.2293 36.1454C56.3928 36.4971 56.4151 36.8487 56.2888 37.2079C56.1625 37.5595 55.9321 37.8214 55.5903 37.986Z" fill="white"/>
<path d="M54.6328 32.5391L57.5829 31.6263L57.5086 32.0678L56.7729 32.2997L56.5797 33.4744L57.2039 33.9308L57.1296 34.3722L54.6328 32.5391ZM56.3494 32.4194L55.5097 32.6813L56.223 33.205L56.3494 32.4194Z" fill="white"/>
<path d="M54.9606 29.5837L54.9531 28.1996C54.9531 27.9826 55.0274 27.7881 55.1761 27.6309C55.3321 27.4738 55.5179 27.399 55.7334 27.399C55.9489 27.399 56.1346 27.4738 56.2907 27.6234C56.4467 27.7806 56.5285 27.9676 56.5285 28.1846V28.6036L57.7026 27.4065V27.9676L56.5285 29.1647V29.1797L57.71 29.1722V29.5688L54.9606 29.5837ZM56.1346 28.1921C56.1346 28.0798 56.0975 27.9901 56.0157 27.9078C55.9414 27.8329 55.8523 27.7955 55.7408 27.7955C55.6293 27.7955 55.5402 27.8329 55.4584 27.9152C55.3841 27.9975 55.347 28.0873 55.347 28.1996L55.3544 29.1872L56.1421 29.1797L56.1346 28.1921Z" fill="white"/>
<path d="M54.7867 25.7754L54.5117 24.062L54.8981 24.0022L55.1136 25.319L55.8864 25.1918L55.6709 23.875L56.0573 23.8151L56.2728 25.132L57.0456 25.0048L56.8302 23.6805L57.224 23.6206L57.4989 25.334L54.7867 25.7754Z" fill="white"/>
<path d="M16.6012 28.9328C16.7052 26.2692 17.1511 23.7777 18.3623 21.4134C20.0714 18.069 22.6796 15.6972 25.8898 13.9539C27.48 13.0935 27.2199 12.5398 25.7932 11.8664C24.7083 11.3577 21.5724 9.73408 20.7105 9.41235C14.736 12.8241 10.7308 18.8845 9.82422 25.6557C11.0652 26.4787 15.7689 29.3817 15.7689 29.3817C16.1256 29.5987 16.5863 29.3518 16.6012 28.9328Z" fill="#D1D3D4"/>
<path d="M13.7929 1.51139C9.81739 7.0705 1.15298 19.1913 1.15298 19.1913C1.15298 19.1913 -3.08262 24.279 4.68265 29.6661C12.6114 35.1653 19.0317 39.041 19.0317 39.041L20.0497 37.7765C20.0497 37.7765 3.65719 29.8307 3.49371 24.0995C3.40454 21.0244 15.2791 5.90331 15.2791 5.90331C15.2791 5.90331 17.5901 2.79829 20.8374 5.04288C24.003 7.2351 38.7904 15.1061 38.7904 15.1061L39.9199 12.9663C39.9273 12.9663 18.6304 -5.2598 13.7929 1.51139Z" fill="black"/>
<path d="M36.4502 11.4175C31.8505 9.15051 27.288 6.82362 22.7328 4.47428C20.7339 3.44176 18.8093 3.5914 16.9219 4.59399C20.9197 5.67139 35.6626 12.8915 38.7167 15.9367C39.0436 13.8417 38.3897 12.3752 36.4502 11.4175Z" fill="#D1D3D4"/>
<path d="M35.4395 25.1095C33.6635 27.8779 31.5754 30.953 29.4279 33.4445C28.9003 34.058 28.5139 34.1403 28.1201 33.2798C26.6339 30.0701 30.5425 24.3613 34.3472 23.9798C34.9193 23.9349 36.2495 23.8151 35.4395 25.1095Z" fill="#939598"/>
<path d="M49.6112 16.1611C49.1579 16.5726 48.7269 17.0066 48.3108 17.4704C48.2365 17.1712 48.177 16.8943 48.1102 16.6175C47.8501 15.4503 47.5306 14.2906 47.1367 13.1608C48.0507 14.0811 48.883 15.0837 49.6112 16.1611Z" fill="black"/>
<path d="M50.0177 27.616C49.7353 28.2969 49.4901 29.0301 49.2672 29.8082C48.643 28.5213 48.1822 27.1671 47.8999 25.7605C47.4986 23.7927 47.1642 21.8025 46.8224 19.8123C46.5029 17.9343 46.1239 16.0564 45.5146 14.2457C45.0613 12.9139 44.5634 11.5971 43.8203 10.3925C44.5337 10.8714 45.2099 11.3951 45.8564 11.9637C46.8818 14.4178 47.454 17.0066 47.9296 19.6253C48.264 21.4733 48.5909 23.3363 49.1185 25.1395C49.3712 25.9924 49.6684 26.8229 50.0177 27.616Z" fill="black"/>
<path d="M52.6727 22.8201C51.7141 23.8825 50.919 25.1021 50.3914 26.5536C50.2205 26.0373 50.0645 25.5809 49.9159 25.1245C49.3883 23.3887 49.0762 21.6155 48.7492 19.8348C48.66 19.3709 48.5783 18.907 48.4891 18.4431C48.4594 18.3159 48.4817 18.2186 48.5634 18.1289C48.9944 17.6201 49.4626 17.1487 49.953 16.6923C51.142 18.5329 52.0708 20.5979 52.6727 22.8201Z" fill="black"/>
<path d="M22.0397 38.3676L5.78092 27.0249C4.17585 25.9027 3.85632 24.6083 3.94549 23.5758C4.01237 23.0221 4.46565 21.9671 4.88921 21.0618C5.49854 19.8273 6.08558 18.8546 7.02188 17.3956C7.51231 16.6325 7.02931 17.3956 8.60465 14.8967C8.60465 14.8967 0.42325 22.9473 2.15465 26.6658C2.15465 26.6658 2.48904 28.1024 7.51231 31.5964C7.51975 31.6039 14.3264 36.3101 17.7001 38.7492C19.2383 39.8715 20.5981 39.9688 22.0397 38.3676Z" fill="#D1D3D4"/>
<path d="M51.7718 14.5151C51.0065 15.0089 50.2931 15.5551 49.6169 16.1611C49.1636 16.5726 48.7326 17.0066 48.3165 17.4705C48.2422 17.1712 48.1827 16.8944 48.1158 16.6175C47.8558 15.4503 47.5362 14.2906 47.1424 13.1609C46.9641 12.6371 46.7783 12.1209 46.5628 11.6121C46.5108 11.4849 46.5331 11.4101 46.6222 11.3278C47.2687 10.6843 48.0044 10.1681 48.8144 9.75656C48.911 9.70419 48.9927 9.65181 49.0819 9.79397C50.1073 11.2754 50.9544 12.8541 51.7644 14.4552C51.7644 14.4627 51.7644 14.4777 51.7718 14.5151Z" fill="#D1D3D4"/>
<path d="M43.875 7.35485C44.2763 6.89845 44.7147 6.53931 45.22 6.255C45.2869 6.21759 45.4206 6.255 45.5024 6.29989C46.3941 6.7937 47.1595 7.44463 47.8357 8.20779C48.1032 8.50707 48.3484 8.81383 48.6233 9.14304C47.7242 9.58448 46.944 10.1381 46.2306 10.834C45.6658 9.50966 44.9525 8.32002 43.875 7.35485Z" fill="#D1D3D4"/>
<path d="M39.9258 5.55168C41.5086 5.11024 43.3811 5.31226 44.5775 5.8734C44.1837 6.21757 43.7898 6.56923 43.4183 6.89095C42.8833 6.59916 42.3483 6.27743 41.7909 6.01556C41.2188 5.74621 40.6094 5.61154 39.9258 5.55168Z" fill="#D1D3D4"/>
<path d="M50.0262 27.6085C49.7439 28.2894 49.4986 29.0226 49.2757 29.8007C48.6515 28.5063 48.1908 27.1596 47.9084 25.753C47.5072 23.7852 47.1728 21.795 46.8309 19.8048C46.5114 17.9268 46.1324 16.0488 45.5231 14.2382C45.0698 12.9064 44.572 11.5896 43.8289 10.385C43.762 10.2653 43.6803 10.1456 43.6059 10.0333C42.7811 8.79133 41.7111 7.84112 40.2695 7.39968C39.2292 7.07796 38.3152 7.05551 37.2823 7.30242C37.1262 7.26501 36.9181 7.20515 36.7695 7.16774C37.8767 6.38961 39.0508 6.15019 40.4404 6.41206C42.0157 6.71882 43.2344 7.61666 44.2227 8.8437C44.9584 9.7565 45.4042 10.8189 45.8501 11.8889C45.8575 11.9113 45.8724 11.9338 45.8724 11.9562C46.8978 14.4103 47.47 16.9991 47.9456 19.6177C48.28 21.4658 48.6069 23.3288 49.1345 25.132C49.3797 25.9924 49.677 26.8154 50.0262 27.6085Z" fill="#D1D3D4"/>
<path d="M55.058 20.6203C55.0432 20.6278 55.0283 20.6428 55.0209 20.6502C55.006 20.6577 54.9912 20.6727 54.9837 20.6877C54.9763 20.6802 54.9763 20.6877 54.9689 20.6951C54.9466 20.7101 54.9168 20.7325 54.902 20.7475C54.8946 20.7475 54.8797 20.7625 54.8648 20.77C54.8202 20.8074 54.7831 20.8448 54.7385 20.8747C53.9954 21.4733 53.2969 22.1167 52.6727 22.82C51.7141 23.8825 50.919 25.102 50.3914 26.5535C50.2205 26.0373 50.0645 25.5809 49.9159 25.1245C49.3883 23.3887 49.0762 21.6154 48.7492 19.8347C48.66 19.3708 48.5783 18.9069 48.4891 18.4431C48.4594 18.3159 48.4817 18.2186 48.5634 18.1288C48.9944 17.62 49.4626 17.1487 49.953 16.6923C50.4137 16.2733 50.9042 15.8842 51.4243 15.5101C51.6101 15.3755 51.7959 15.2483 51.9891 15.1285C52.0114 15.1136 52.0262 15.1136 52.0337 15.1136C53.0443 16.9317 54.04 18.7723 55.058 20.6203Z" fill="#D1D3D4"/>
<path d="M54.4184 15.8768C53.2294 13.7893 52.1297 11.6495 50.7029 9.69666C49.8781 8.56688 48.9567 7.51941 47.8272 6.68891C47.3739 6.35222 46.8834 6.06791 46.4153 5.75366C46.4004 5.77611 46.3856 5.79855 46.3633 5.821C46.4004 5.85093 46.4376 5.88086 46.4673 5.91078C46.9132 6.29236 47.3813 6.65898 47.8049 7.06301C49.0681 8.27509 50.0639 9.69666 50.9036 11.223C51.9364 13.101 52.9025 15.0238 53.9056 16.9243C54.4852 18.0241 55.0946 19.109 55.7708 20.149L56.6476 19.5729C55.8674 18.3758 55.1317 17.1337 54.4184 15.8768Z" fill="#D1D3D4"/>
<path d="M54.7461 20.8747C54.8501 20.7924 54.9542 20.7027 55.0582 20.6204C55.0582 20.6204 54.9393 20.7101 54.7461 20.8747Z" fill="#999999"/>
<path d="M21.0392 27.0099C21.0392 27.0099 20.8386 30.4292 23.6326 34.1103C23.6326 34.1103 19.293 31.6937 21.0392 27.0099Z" fill="#939598"/>
<path d="M35.0165 21.9072C35.0165 21.9072 29.6142 18.6526 25.6684 24.6382C22.1091 30.0327 26.1886 34.881 26.1886 34.881C26.1886 34.881 24.0857 22.4085 35.0165 21.9072Z" fill="#939598"/>
<path d="M40.0749 15.2408C40.0749 15.2408 45.6109 18.1588 39.8742 29.3444C36.2108 36.4822 27.1451 45.2436 22.1367 40.6796C22.1293 40.6796 34.4869 32.3746 40.0749 15.2408Z" fill="#D1D3D4"/>
<path d="M44.2733 23.6132C44.2733 23.6132 43.3593 35.2776 32.1758 40.8292C32.1758 40.8292 39.5101 44.7871 45.0832 35.4197C49.7052 27.6459 44.2733 23.6132 44.2733 23.6132Z" fill="#D1D3D4"/>
</g>
<defs>
<clipPath id="clip0_1_1626">
<rect width="279" height="55" fill="white"/>
</clipPath>
</defs>
</svg>
