<svg width="376" height="74" viewBox="0 0 376 74" fill="none" xmlns="http://www.w3.org/2000/svg">
<path d="M105.959 26.89C106.559 27.58 106.879 28.15 106.879 28.79C106.879 29.74 106.119 30.5 105.109 30.5C104.449 30.5 103.809 30.09 103.399 29.65C102.519 28.73 101.759 28.23 100.369 28.23C98.4394 28.23 97.3394 29.21 97.3394 30.6C97.3394 31.64 97.9094 32.59 99.7994 33.32L101.029 33.79C105.959 35.65 107.949 37.46 107.949 40.49C107.949 44.85 103.619 47.03 99.9494 47.03C97.4494 47.03 94.8294 46.02 93.2794 44.06C92.9594 43.68 92.3994 42.95 92.3994 42.01C92.3994 41.13 92.9694 40.21 94.1394 40.21C95.0894 40.21 95.7194 40.81 96.1594 41.41C97.2694 42.8 98.7494 43.24 99.9494 43.24C101.499 43.24 103.619 42.64 103.619 40.49C103.619 38.85 102.509 38.09 100.079 37.14L98.7494 36.63C95.4994 35.37 93.0894 33.79 93.0894 30.56C93.0894 26.8 96.2494 24.46 100.199 24.46C102.989 24.46 104.689 25.5 105.959 26.89Z" fill="black"/>
<path d="M133.13 35.74C133.13 42.41 127.66 47.02 122.1 47.02C116.57 47.02 111.1 42.41 111.1 35.74C111.1 29.07 116.57 24.46 122.1 24.46C127.67 24.46 133.13 29.07 133.13 35.74ZM115.56 35.74C115.56 40.07 118.63 42.98 122.1 42.98C125.61 42.98 128.67 40.07 128.67 35.74C128.67 31.41 125.64 28.5 122.1 28.5C118.63 28.5 115.56 31.41 115.56 35.74Z" fill="black"/>
<path d="M149.249 43.04C150.259 43.04 151.149 43.86 151.149 44.94C151.149 45.98 150.259 46.8 149.249 46.8H139.259C137.899 46.8 136.919 45.82 136.919 44.46V26.76C136.919 25.56 137.869 24.58 139.069 24.58C140.239 24.58 141.189 25.56 141.189 26.76V43.03H149.249V43.04Z" fill="black"/>
<path d="M171.309 26.6399V38.8699C171.309 43.9899 167.389 47.0199 162.489 47.0199C157.559 47.0199 153.669 43.9899 153.669 38.8699V26.6399C153.669 25.5299 154.589 24.5899 155.759 24.5899C156.929 24.5899 157.939 25.5399 157.939 26.6399V38.7999C157.939 42.1199 160.059 43.4499 162.489 43.4499C164.949 43.4499 167.039 42.1199 167.039 38.7999V26.6399C167.039 25.5299 168.049 24.5899 169.249 24.5899C170.419 24.5799 171.309 25.5299 171.309 26.6399Z" fill="black"/>
<path d="M191.599 26.5699C191.599 27.6099 190.749 28.4299 189.739 28.4299H185.249V44.7699C185.249 45.9999 184.269 47.0099 183.129 47.0099C181.959 47.0099 180.979 45.9999 180.979 44.7699V28.4399H176.519C175.509 28.4399 174.619 27.6199 174.619 26.5799C174.619 25.5099 175.499 24.6799 176.519 24.6799H189.729C190.739 24.6799 191.599 25.4999 191.599 26.5699Z" fill="black"/>
<path d="M199.09 26.76V44.84C199.09 46.01 198.11 47.02 196.94 47.02C195.74 47.02 194.76 46.01 194.76 44.84V26.76C194.76 25.59 195.74 24.58 196.94 24.58C198.11 24.58 199.09 25.59 199.09 26.76Z" fill="black"/>
<path d="M224.91 35.74C224.91 42.41 219.44 47.02 213.88 47.02C208.35 47.02 202.88 42.41 202.88 35.74C202.88 29.07 208.35 24.46 213.88 24.46C219.44 24.46 224.91 29.07 224.91 35.74ZM207.34 35.74C207.34 40.07 210.41 42.98 213.88 42.98C217.39 42.98 220.45 40.07 220.45 35.74C220.45 31.41 217.42 28.5 213.88 28.5C210.4 28.5 207.34 31.41 207.34 35.74Z" fill="black"/>
<path d="M247.029 26.76V44.9C247.029 46.26 246.149 46.99 245.039 46.99C244.119 46.99 243.399 46.52 242.829 45.73L233.029 32.39V44.81C233.029 45.98 232.079 46.99 230.909 46.99C229.679 46.99 228.699 45.98 228.699 44.81V26.64C228.699 25.31 229.579 24.59 230.719 24.59C231.639 24.59 232.359 25.06 232.899 25.82L242.699 39.19V26.76C242.699 25.59 243.679 24.58 244.849 24.58C246.079 24.58 247.029 25.59 247.029 26.76Z" fill="black"/>
<path d="M264.539 26.76V44.84C264.539 46.01 263.559 47.02 262.389 47.02C261.189 47.02 260.209 46.01 260.209 44.84V26.76C260.209 25.59 261.189 24.58 262.389 24.58C263.559 24.58 264.539 25.59 264.539 26.76Z" fill="black"/>
<path d="M284.029 26.5699C284.029 27.6099 283.179 28.4299 282.159 28.4299H277.669V44.7699C277.669 45.9999 276.689 47.0099 275.549 47.0099C274.379 47.0099 273.399 45.9999 273.399 44.7699V28.4399H268.939C267.929 28.4399 267.039 27.6199 267.039 26.5799C267.039 25.5099 267.919 24.6799 268.939 24.6799H282.149C283.179 24.6799 284.029 25.4999 284.029 26.5699Z" fill="black"/>
<path d="M314.249 43.17C314.249 44.21 313.519 44.91 312.349 45.67C311.019 46.49 309.279 47.03 307.139 47.03C301.549 47.03 295.949 42.42 295.949 35.75C295.949 29.08 301.579 24.47 307.069 24.47C309.279 24.47 311.019 25.04 312.349 25.83C313.519 26.59 314.249 27.28 314.249 28.33C314.249 29.56 313.269 30.26 312.259 30.26C311.469 30.26 310.899 29.85 310.549 29.6C310.079 29.28 308.909 28.53 307.139 28.53C303.569 28.53 300.409 31.69 300.409 35.77C300.409 39.85 303.539 43.01 307.169 43.01C308.879 43.01 310.079 42.25 310.549 41.93C310.899 41.68 311.429 41.27 312.259 41.27C313.269 41.24 314.249 41.93 314.249 43.17Z" fill="black"/>
<path d="M337.119 44.9999C337.119 46.0399 336.239 46.9299 335.069 46.9299C334.119 46.9299 333.359 46.3899 333.019 45.5699L331.439 41.8399H322.469L320.889 45.5699C320.539 46.3899 319.779 46.9299 318.869 46.9299C317.699 46.9299 316.779 46.0499 316.779 44.9999C316.779 44.5599 316.909 44.1499 317.059 43.7999L324.899 26.1299C325.339 25.0599 326.009 24.5499 326.949 24.5499C327.899 24.5499 328.559 25.0599 329.029 26.1299L336.869 43.7999C337.029 44.1399 337.119 44.5499 337.119 44.9999ZM329.979 38.4599L326.949 31.3199L323.919 38.4599H329.979Z" fill="black"/>
<path d="M356.939 44.8999C356.939 46.0099 356.119 46.8899 355.009 46.8899C354.349 46.8899 353.779 46.5699 353.429 46.0999L347.839 38.9599H344.709V44.8699C344.709 46.0399 343.759 47.0199 342.589 47.0199C341.389 47.0199 340.439 46.0399 340.439 44.8699V27.0199C340.439 25.6599 341.419 24.6799 342.779 24.6799H348.559C353.489 24.6799 356.649 27.8699 356.649 31.8499C356.649 34.8199 354.939 37.2499 352.069 38.3599L356.429 43.6099C356.719 43.9599 356.939 44.3999 356.939 44.8999ZM344.709 35.3299H348.379C350.749 35.3299 352.519 34.4799 352.519 31.8499C352.519 29.2599 350.749 28.3099 348.379 28.3099H344.709V35.3299Z" fill="black"/>
<path d="M373.559 43.0699C374.569 43.0699 375.459 43.9199 375.459 44.9299C375.459 45.9699 374.579 46.7899 373.559 46.7899H362.749C361.389 46.7899 360.409 45.8099 360.409 44.4499V27.0199C360.409 25.6599 361.389 24.6799 362.749 24.6799H373.239C374.249 24.6799 375.139 25.4999 375.139 26.5099C375.139 27.5499 374.259 28.4099 373.239 28.4099H364.679V33.9099H370.309C371.349 33.9099 372.169 34.7299 372.169 35.6799C372.169 36.6599 371.349 37.4799 370.309 37.4799H364.679V43.0699H373.559Z" fill="black"/>
<path d="M70.8054 46.3302C75.2891 30.672 66.2305 14.3437 50.5723 9.85993C34.9141 5.37615 18.5858 14.4348 14.102 30.093C9.61822 45.7512 18.6769 62.0795 34.3351 66.5633C49.9933 71.0471 66.3216 61.9884 70.8054 46.3302Z" fill="black"/>
<path d="M25.8705 69.0099C25.7905 68.7799 25.7905 68.5499 25.8705 68.3199L26.3505 68.5699C26.3305 68.6699 26.3305 68.7599 26.3605 68.8499C26.4105 68.9899 26.5105 69.0999 26.6405 69.1699C26.7705 69.2399 26.9105 69.2499 27.0605 69.2099C27.2005 69.1699 27.3105 69.0799 27.3805 68.9499C27.4505 68.8199 27.4605 68.6899 27.4105 68.5499C27.3605 68.4099 27.2605 68.2999 27.1305 68.2399H27.1205C27.0805 68.2199 27.0305 68.1799 26.9805 68.1499C26.9705 68.1399 26.9505 68.1299 26.9505 68.1299C26.9405 68.1199 26.9205 68.1099 26.9005 68.0899L26.8805 68.0599C26.8705 68.0499 26.8505 68.0299 26.8305 68.0099L26.8105 67.9899C26.8005 67.9799 26.7805 67.9599 26.7605 67.9299L26.7505 67.9099C26.7305 67.8899 26.7105 67.8699 26.7105 67.8399L26.7005 67.8299C26.6805 67.8099 26.6605 67.7799 26.6605 67.7599H26.6505V67.7499C26.6405 67.7199 26.6205 67.6999 26.6105 67.6699C26.6005 67.6399 26.5905 67.6199 26.5805 67.6099C26.4905 67.3299 26.5105 67.0499 26.6405 66.7899C26.7705 66.5299 26.9805 66.3599 27.2705 66.2699C27.5505 66.1799 27.8305 66.2099 28.0905 66.3499C28.3605 66.4899 28.5305 66.6899 28.6305 66.9799C28.7005 67.2099 28.7105 67.4399 28.6305 67.6699L28.1505 67.4199C28.1705 67.3199 28.1705 67.2299 28.1305 67.1399C28.0805 66.9899 27.9905 66.8899 27.8505 66.8199C27.7105 66.7499 27.5805 66.7399 27.4305 66.7799C27.2805 66.8299 27.1805 66.9099 27.1105 67.0399C27.0405 67.1699 27.0405 67.3099 27.0905 67.4499C27.1405 67.5899 27.2305 67.6999 27.3705 67.7599C27.4005 67.7699 27.4305 67.7899 27.4605 67.8199H27.4705L27.5405 67.8699C27.5405 67.8799 27.5405 67.8799 27.5505 67.8799L27.5605 67.8899C27.5905 67.9099 27.6105 67.9299 27.6205 67.9399C27.6205 67.9499 27.6305 67.9499 27.6405 67.9499V67.9599C27.6605 67.9799 27.6805 67.9999 27.6905 68.0099C27.7005 68.0099 27.7005 68.0199 27.7105 68.0399C27.7205 68.0499 27.7405 68.0699 27.7505 68.0899C27.7605 68.0999 27.7705 68.1099 27.7705 68.1199C27.7805 68.1399 27.7905 68.1599 27.8105 68.1699C27.8105 68.1799 27.8205 68.1899 27.8305 68.1999C27.8405 68.2099 27.8505 68.2299 27.8605 68.2599L27.8705 68.2699C27.8705 68.2799 27.8705 68.2799 27.8705 68.2899C27.8705 68.2999 27.8705 68.2999 27.8705 68.2999C27.8705 68.3099 27.8705 68.3099 27.8805 68.3199H27.8705C27.8905 68.3499 27.8905 68.3699 27.9005 68.3799C27.9905 68.6599 27.9805 68.9299 27.8505 69.1899C27.7205 69.4499 27.5105 69.6299 27.2305 69.7099C26.9505 69.7999 26.6705 69.7799 26.4005 69.6399C26.1405 69.4999 25.9605 69.2999 25.8705 69.0099Z" fill="black" stroke="black" stroke-width="0.2384" stroke-miterlimit="10"/>
<path d="M30.6301 70.91C30.3901 70.46 30.3501 69.99 30.5101 69.5C30.6701 69.01 30.9701 68.65 31.4301 68.42C31.8801 68.18 32.3501 68.14 32.8401 68.3C33.1601 68.4 33.4301 68.58 33.6501 68.82C33.8701 69.06 34.0101 69.35 34.0901 69.67C34.1601 70 34.1501 70.31 34.0401 70.64C33.8801 71.13 33.5801 71.49 33.1201 71.72C32.6601 71.96 32.1901 71.99 31.7001 71.84C31.2201 71.67 30.8601 71.37 30.6301 70.91ZM32.8901 71.24C33.2101 71.07 33.4301 70.81 33.5401 70.47C33.6501 70.12 33.6201 69.79 33.4601 69.46C33.2901 69.14 33.0301 68.92 32.6801 68.81C32.4501 68.74 32.2201 68.72 32.0001 68.78C31.7701 68.83 31.5701 68.94 31.3901 69.09C31.2101 69.25 31.0901 69.44 31.0201 69.67C30.9101 70.02 30.9401 70.35 31.1101 70.67C31.2701 71 31.5301 71.22 31.8801 71.33C32.2201 71.43 32.5601 71.41 32.8901 71.24Z" fill="black" stroke="black" stroke-width="0.2384" stroke-miterlimit="10"/>
<path d="M36.7507 69.3099L37.2807 69.3899L36.8207 72.5299L38.5907 72.7899L38.5107 73.3199L36.2207 72.9799L36.7507 69.3099Z" fill="black" stroke="black" stroke-width="0.2384" stroke-miterlimit="10"/>
<path d="M41.7605 73.0399C41.4305 72.7199 41.2605 72.3399 41.2605 71.8799V71.8699V71.8599L41.2305 69.8299L41.7605 69.8199L41.7905 71.8499V71.8599V71.8699C41.7905 72.1799 41.9105 72.4399 42.1305 72.6499C42.3505 72.8699 42.6205 72.9799 42.9205 72.9699C43.1305 72.9699 43.3205 72.9099 43.4905 72.8099C43.6605 72.7099 43.7905 72.5699 43.8905 72.3899C43.9805 72.2199 44.0305 72.0299 44.0305 71.8299V71.8199L44.0005 69.7899L44.5305 69.7799L44.5605 71.8099V71.8199V71.8299C44.5705 72.2899 44.4105 72.6699 44.0905 72.9999C43.7705 73.3299 43.3905 73.4999 42.9305 73.4999C42.4805 73.5199 42.0905 73.3599 41.7605 73.0399Z" fill="black" stroke="black" stroke-width="0.2384" stroke-miterlimit="10"/>
<path d="M47.9209 69.8599L46.8109 70.0599L46.7109 69.5399L49.4409 69.0399L49.5409 69.5599L48.4309 69.7599L49.0009 72.8799L48.4809 72.9699L47.9209 69.8599Z" fill="black" stroke="black" stroke-width="0.2384" stroke-miterlimit="10"/>
<path d="M51.5908 68.4399L52.1008 68.2799L53.2008 71.8199L52.6908 71.9799L51.5908 68.4399Z" fill="black" stroke="black" stroke-width="0.2384" stroke-miterlimit="10"/>
<path d="M56.0408 70.21C55.5608 70.04 55.2108 69.72 54.9908 69.26C54.7708 68.8 54.7508 68.33 54.9208 67.84C55.0908 67.36 55.4108 67.01 55.8708 66.79C56.1808 66.65 56.4908 66.59 56.8208 66.62C57.1508 66.65 57.4408 66.76 57.7108 66.94C57.9808 67.13 58.1908 67.37 58.3308 67.68C58.5508 68.14 58.5708 68.61 58.3908 69.09C58.2208 69.58 57.9008 69.92 57.4308 70.14C56.9908 70.37 56.5208 70.39 56.0408 70.21ZM57.9108 68.92C58.0308 68.58 58.0208 68.24 57.8608 67.91C57.7008 67.58 57.4608 67.36 57.1108 67.23C56.7608 67.11 56.4208 67.13 56.0908 67.28C55.8808 67.38 55.7008 67.53 55.5708 67.72C55.4408 67.92 55.3608 68.13 55.3408 68.36C55.3208 68.6 55.3608 68.82 55.4608 69.04C55.6208 69.37 55.8608 69.59 56.2108 69.71C56.5508 69.84 56.8908 69.82 57.2208 69.67C57.5608 69.51 57.7908 69.27 57.9108 68.92Z" fill="black" stroke="black" stroke-width="0.2384" stroke-miterlimit="10"/>
<path d="M63.9604 66.2099L60.5904 65.6299L61.9804 67.5999L61.5504 67.9099L59.4004 64.8699L62.7904 65.4499L61.4004 63.4799L61.8304 63.1799L63.9604 66.2099Z" fill="black" stroke="black" stroke-width="0.2384" stroke-miterlimit="10"/>
<path d="M65.8008 59.4399L66.1508 59.0399L68.9208 61.4999L68.5708 61.8999L65.8008 59.4399Z" fill="black" stroke="black" stroke-width="0.2384" stroke-miterlimit="10"/>
<path d="M68.6601 56.7099L68.0201 57.6399L67.5801 57.3399L69.1601 55.0499L69.6001 55.3499L68.9601 56.2799L71.5801 58.0899L71.2801 58.5199L68.6601 56.7099Z" fill="black" stroke="black" stroke-width="0.2384" stroke-miterlimit="10"/>
<path d="M74.8102 50.7699C74.3502 50.9899 73.8802 51.0199 73.4002 50.8499C73.2102 50.7799 73.0401 50.6899 72.8801 50.5599C72.7201 50.4399 72.5902 50.2999 72.4802 50.1399C72.3802 49.9799 72.3002 49.8099 72.2402 49.6299C72.1902 49.4499 72.1602 49.2599 72.1602 49.0699C72.1602 48.8699 72.2002 48.6799 72.2602 48.4899C72.4302 48.0099 72.7402 47.6499 73.2102 47.4299L73.4402 47.9099C73.1102 48.0699 72.8802 48.3099 72.7602 48.6599C72.6402 48.9999 72.6602 49.3399 72.8102 49.6699C72.9702 50.0099 73.2202 50.2299 73.5602 50.3499C73.9002 50.4699 74.2402 50.4499 74.5702 50.2899C74.9002 50.1399 75.1302 49.8799 75.2502 49.5399C75.3702 49.1999 75.3502 48.8599 75.1902 48.5399L75.6702 48.3099C75.8902 48.7799 75.9202 49.2499 75.7502 49.7299C75.5802 50.1999 75.2702 50.5499 74.8102 50.7699Z" fill="black" stroke="black" stroke-width="0.2384" stroke-miterlimit="10"/>
<path d="M73.5205 43.4899L77.4905 42.2699L77.3905 42.8599L76.4005 43.1699L76.1405 44.7399L76.9805 45.3499L76.8805 45.9399L73.5205 43.4899ZM75.8305 43.3299L74.7005 43.6799L75.6605 44.3799L75.8305 43.3299Z" fill="black" stroke="black" stroke-width="0.2384" stroke-miterlimit="10"/>
<path d="M73.9602 39.54L73.9502 37.69C73.9502 37.4 74.0502 37.14 74.2502 36.93C74.4602 36.72 74.7102 36.62 75.0002 36.62C75.2902 36.62 75.5402 36.72 75.7502 36.92C75.9602 37.13 76.0702 37.38 76.0702 37.67V38.23L77.6502 36.63V37.38L76.0702 38.98V39L77.6602 38.99V39.52L73.9602 39.54ZM75.5402 37.68C75.5402 37.53 75.4902 37.41 75.3802 37.3C75.2802 37.2 75.1602 37.15 75.0102 37.15C74.8602 37.15 74.7402 37.2 74.6302 37.31C74.5302 37.42 74.4802 37.54 74.4802 37.69L74.4902 39.01L75.5502 39L75.5402 37.68Z" fill="black" stroke="black" stroke-width="0.2384" stroke-miterlimit="10"/>
<path d="M73.7304 34.4499L73.3604 32.1599L73.8803 32.0799L74.1703 33.8399L75.2104 33.6699L74.9203 31.9099L75.4404 31.8299L75.7304 33.5899L76.7703 33.4199L76.4804 31.6499L77.0104 31.5699L77.3803 33.8599L73.7304 34.4499Z" fill="black" stroke="black" stroke-width="0.2384" stroke-miterlimit="10"/>
<path d="M22.3397 38.67C22.4797 35.11 23.0797 31.78 24.7097 28.62C27.0097 24.15 30.5197 20.98 34.8397 18.65C36.9797 17.5 36.6297 16.76 34.7097 15.86C33.2497 15.18 29.0297 13.01 27.8697 12.58C19.8297 17.14 14.4397 25.24 13.2197 34.29C14.8897 35.39 21.2197 39.27 21.2197 39.27C21.6997 39.56 22.3197 39.23 22.3397 38.67Z" fill="#D1D3D4"/>
<path d="M18.5597 2.01995C13.2097 9.44995 1.54965 25.6499 1.54965 25.6499C1.54965 25.6499 -4.15035 32.4499 6.29965 39.6499C16.9697 46.9999 25.6097 52.1799 25.6097 52.1799L26.9797 50.4899C26.9797 50.4899 4.91965 39.8699 4.69965 32.2099C4.57965 28.0999 20.5597 7.88995 20.5597 7.88995C20.5597 7.88995 23.6697 3.73995 28.0397 6.73995C32.2997 9.66995 52.1997 20.1899 52.1997 20.1899L53.7197 17.3299C53.7297 17.3299 25.0697 -7.03005 18.5597 2.01995Z" fill="black"/>
<path d="M49.0495 15.26C42.8595 12.23 36.7195 9.11997 30.5895 5.97997C27.8995 4.59997 25.3095 4.79997 22.7695 6.13997C28.1495 7.57997 47.9895 17.23 52.0995 21.3C52.5395 18.5 51.6595 16.54 49.0495 15.26Z" fill="#D1D3D4"/>
<path d="M47.6892 33.5599C45.2992 37.2599 42.4892 41.3699 39.5992 44.6999C38.8892 45.5199 38.3692 45.6299 37.8392 44.4799C35.8392 40.1899 41.0992 32.5599 46.2192 32.0499C46.9892 31.9899 48.7792 31.8299 47.6892 33.5599Z" fill="#939598"/>
<path d="M66.7597 21.6C66.1497 22.15 65.5697 22.73 65.0097 23.35C64.9097 22.95 64.8297 22.58 64.7397 22.21C64.3897 20.65 63.9597 19.1 63.4297 17.59C64.6597 18.82 65.7797 20.16 66.7597 21.6Z" fill="black"/>
<path d="M67.3097 36.9099C66.9297 37.8199 66.5997 38.7999 66.2997 39.8399C65.4597 38.1199 64.8397 36.3099 64.4597 34.4299C63.9197 31.7999 63.4697 29.1399 63.0097 26.4799C62.5797 23.9699 62.0697 21.4599 61.2497 19.0399C60.6397 17.2599 59.9697 15.4999 58.9697 13.8899C59.9297 14.5299 60.8397 15.2299 61.7097 15.9899C63.0897 19.2699 63.8597 22.7299 64.4997 26.2299C64.9497 28.6999 65.3897 31.1899 66.0997 33.5999C66.4397 34.7399 66.8397 35.8499 67.3097 36.9099Z" fill="black"/>
<path d="M70.8793 30.4999C69.5893 31.9199 68.5193 33.5499 67.8093 35.4899C67.5793 34.7999 67.3693 34.1899 67.1693 33.5799C66.4593 31.2599 66.0393 28.8899 65.5993 26.5099C65.4793 25.8899 65.3693 25.2699 65.2493 24.6499C65.2093 24.4799 65.2393 24.3499 65.3493 24.2299C65.9293 23.5499 66.5593 22.9199 67.2193 22.3099C68.8193 24.7699 70.0693 27.5299 70.8793 30.4999Z" fill="black"/>
<path d="M29.6599 51.2799L7.77993 36.1199C5.61993 34.6199 5.18993 32.8899 5.30993 31.5099C5.39993 30.7699 6.00993 29.3599 6.57993 28.1499C7.39993 26.4999 8.18993 25.1999 9.44993 23.2499C10.1099 22.2299 9.45993 23.2499 11.5799 19.9099C11.5799 19.9099 0.569934 30.6699 2.89993 35.6399C2.89993 35.6399 3.34993 37.5599 10.1099 42.2299C10.1199 42.2399 19.2799 48.5299 23.8199 51.7899C25.8899 53.2899 27.7199 53.4199 29.6599 51.2799Z" fill="#D1D3D4"/>
<path d="M69.6693 19.3999C68.6393 20.0599 67.6793 20.7899 66.7693 21.5999C66.1593 22.1499 65.5793 22.7299 65.0193 23.3499C64.9193 22.9499 64.8393 22.5799 64.7493 22.2099C64.3993 20.6499 63.9693 19.0999 63.4393 17.5899C63.1993 16.8899 62.9493 16.1999 62.6593 15.5199C62.5893 15.3499 62.6193 15.2499 62.7393 15.1399C63.6093 14.2799 64.5993 13.5899 65.6893 13.0399C65.8193 12.9699 65.9293 12.8999 66.0493 13.0899C67.4293 15.0699 68.5693 17.1799 69.6593 19.3199C69.6593 19.3299 69.6593 19.3499 69.6693 19.3999Z" fill="#D1D3D4"/>
<path d="M59.0391 9.82994C59.5791 9.21994 60.1691 8.73994 60.8491 8.35994C60.9391 8.30994 61.1191 8.35994 61.2291 8.41994C62.4291 9.07994 63.4591 9.94994 64.3691 10.9699C64.7291 11.3699 65.0591 11.7799 65.4291 12.2199C64.2191 12.8099 63.1691 13.5499 62.2091 14.4799C61.4491 12.7099 60.4891 11.1199 59.0391 9.82994Z" fill="#D1D3D4"/>
<path d="M53.7295 7.41998C55.8595 6.82998 58.3795 7.09998 59.9895 7.84998C59.4595 8.30998 58.9295 8.77998 58.4295 9.20998C57.7095 8.81998 56.9895 8.38998 56.2395 8.03998C55.4695 7.67998 54.6495 7.49998 53.7295 7.41998Z" fill="#D1D3D4"/>
<path d="M67.3195 36.9C66.9395 37.81 66.6095 38.79 66.3095 39.83C65.4695 38.1 64.8495 36.3 64.4695 34.42C63.9295 31.79 63.4795 29.13 63.0195 26.47C62.5895 23.96 62.0795 21.45 61.2595 19.03C60.6495 17.25 59.9795 15.49 58.9795 13.88C58.8895 13.72 58.7795 13.56 58.6795 13.41C57.5695 11.75 56.1295 10.48 54.1895 9.88997C52.7895 9.45996 51.5595 9.42996 50.1695 9.75996C49.9595 9.70996 49.6795 9.62996 49.4795 9.57996C50.9695 8.53996 52.5495 8.21996 54.4195 8.56996C56.5395 8.97996 58.1795 10.18 59.5095 11.82C60.4995 13.04 61.0995 14.46 61.6995 15.89C61.7095 15.92 61.7295 15.95 61.7295 15.98C63.1095 19.26 63.8795 22.72 64.5195 26.22C64.9695 28.69 65.4095 31.18 66.1195 33.59C66.4495 34.74 66.8495 35.84 67.3195 36.9Z" fill="#D1D3D4"/>
<path d="M74.0893 27.5599C74.0693 27.57 74.0493 27.59 74.0393 27.6C74.0193 27.61 73.9993 27.63 73.9893 27.65C73.9793 27.6399 73.9793 27.65 73.9693 27.66C73.9393 27.68 73.8993 27.7099 73.8793 27.7299C73.8693 27.7299 73.8493 27.75 73.8293 27.76C73.7693 27.81 73.7193 27.86 73.6593 27.9C72.6593 28.7 71.7193 29.56 70.8793 30.5C69.5893 31.92 68.5193 33.55 67.8093 35.49C67.5793 34.8 67.3693 34.19 67.1693 33.58C66.4593 31.26 66.0393 28.89 65.5993 26.51C65.4793 25.89 65.3693 25.2699 65.2493 24.65C65.2093 24.4799 65.2393 24.3499 65.3493 24.2299C65.9293 23.5499 66.5593 22.92 67.2193 22.3099C67.8393 21.7499 68.4993 21.2299 69.1993 20.7299C69.4493 20.5499 69.6993 20.3799 69.9593 20.2199C69.9893 20.1999 70.0093 20.2 70.0193 20.2C71.3793 22.63 72.7193 25.0899 74.0893 27.5599Z" fill="#D1D3D4"/>
<path d="M73.2297 21.2199C71.6297 18.4299 70.1497 15.5699 68.2297 12.9599C67.1197 11.4499 65.8796 10.0499 64.3596 8.93994C63.7496 8.48994 63.0896 8.10994 62.4596 7.68994C62.4396 7.71994 62.4196 7.74994 62.3896 7.77994C62.4396 7.81994 62.4896 7.85994 62.5296 7.89994C63.1296 8.40994 63.7597 8.89994 64.3297 9.43994C66.0297 11.0599 67.3696 12.9599 68.4996 14.9999C69.8896 17.5099 71.1896 20.0799 72.5396 22.6199C73.3196 24.0899 74.1397 25.5399 75.0497 26.9299L76.2297 26.1599C75.1797 24.5599 74.1897 22.8999 73.2297 21.2199Z" fill="#D1D3D4"/>
<path d="M73.6699 27.8999C73.8099 27.7899 73.9499 27.6699 74.0899 27.5599C74.0899 27.5599 73.9299 27.6799 73.6699 27.8999Z" fill="#999999"/>
<path d="M28.3094 36.1C28.3094 36.1 28.0394 40.67 31.7994 45.59C31.7994 45.59 25.9594 42.36 28.3094 36.1Z" fill="#939598"/>
<path d="M47.1195 29.2799C47.1195 29.2799 39.8495 24.9299 34.5395 32.9299C29.7495 40.1399 35.2395 46.6199 35.2395 46.6199C35.2395 46.6199 32.4095 29.9499 47.1195 29.2799Z" fill="#939598"/>
<path d="M53.93 20.37C53.93 20.37 61.38 24.27 53.66 39.22C48.73 48.76 36.53 60.47 29.79 54.37C29.78 54.37 46.41 43.27 53.93 20.37Z" fill="#D1D3D4"/>
<path d="M59.5798 31.5599C59.5798 31.5599 58.3498 47.1499 43.2998 54.5699C43.2998 54.5699 53.1698 59.8599 60.6698 47.3399C66.8898 36.9499 59.5798 31.5599 59.5798 31.5599Z" fill="#D1D3D4"/>
</svg>
